#!OML:ASF H:\Terrain\Patient Classification 1\Animal2\Wednesday\Animal2.ASF
:FULLY-SPECIFIED
:DEGREES
514
root 9.51338 17.4197 28.7949 1.90229 -6.46906 -4.47007
lowerback 1.78503 0.457874 5.27292
upperback -0.291595 0.748564 1.741
thorax -1.25779 0.34085 -1.18615
lowerneck 1.18144 7.07609 18.4985
upperneck 1.44462 10.243 -21.9921
head 2.39417 5.14918 -9.65703
rclavicle -1.11195e-015 -2.10712e-014
rhumerus -18.4702 7.55277 -87.5682
rradius 33.9816
rwrist 7.92574
rhand -18.1457 20.566
rfingers 7.12502
rthumb 8.12976 -9.2576
lclavicle -1.11195e-015 -2.10712e-014
lhumerus -47.008 4.07955 84.813
lradius 19.6351
lwrist 4.08631
lhand -18.8808 23.7278
lfingers 7.12502
lthumb 7.4202 53.5777
rfemur 11.3212 -4.59394 26.0007
rtibia 9.13855
rfoot -21.1737 5.58785
rtoes -6.45654
lfemur -32.0006 -5.28475 -11.0438
ltibia 17.1433
lfoot -15.9986 13.0356
ltoes -9.73269
515
root 9.52434 17.4073 28.9629 1.9827 -6.66556 -4.78184
lowerback 2.77051 0.470485 5.58767
upperback -1.15734 0.887851 1.75395
thorax -2.69395 0.359563 -1.36761
lowerneck 2.05181 6.90233 18.672
upperneck 1.6816 10.1621 -21.7953
head 2.28898 5.15608 -9.66207
rclavicle -1.00324e-014 3.57812e-015
rhumerus -19.8574 7.59037 -87.8551
rradius 34.3229
rwrist 7.92286
rhand -18.0639 20.3347
rfingers 7.12502
rthumb 8.20862 -9.48584
lclavicle -1.00324e-014 3.57812e-015
lhumerus -48.5555 3.8389 84.6857
lradius 19.9973
lwrist 4.4415
lhand -18.9691 23.8829
lfingers 7.12502
lthumb 7.33493 53.7358
rfemur 12.488 -4.35349 26.177
rtibia 8.16347
rfoot -20.9044 5.68521
rtoes -7.96617
lfemur -32.1267 -4.90194 -10.7911
ltibia 16.6772
lfoot -16.1297 13.5958
ltoes -12.4381
516
root 9.52868 17.3936 29.131 2.0881 -6.88039 -4.88179
lowerback 3.49957 0.427837 5.47135
upperback -1.8669 0.915459 1.79459
thorax -3.84311 0.337483 -1.27245
lowerneck 2.57813 6.87018 18.8692
upperneck 2.13202 10.2601 -21.6568
head 2.34728 5.2306 -9.6618
rclavicle 6.46671e-015 8.74653e-015
rhumerus -20.9598 8.031 -88.197
rradius 34.4576
rwrist 7.74062
rhand -18.1156 20.3965
rfingers 7.12502
rthumb 8.15875 -9.42603
lclavicle 6.46671e-015 8.74653e-015
lhumerus -49.7883 4.32854 84.1201
lradius 20.1032
lwrist 3.7824
lhand -19.1229 23.6541
lfingers 7.12502
lthumb 7.18653 53.5121
rfemur 13.7013 -4.09713 26.1515
rtibia 6.82817
rfoot -20.249 6.068
rtoes -7.4251
lfemur -32.2761 -4.49727 -10.7598
ltibia 16.5522
lfoot -16.599 13.3117
ltoes -10.1522
517
root 9.52952 17.3697 29.2978 2.15668 -7.12308 -5.126
lowerback 4.49699 0.348491 5.36568
upperback -2.73886 0.927462 1.98234
thorax -5.32761 0.301916 -1.03009
lowerneck 3.4295 6.73915 18.5724
upperneck 2.54202 10.2366 -21.2123
head 2.26805 5.25872 -9.49335
rclavicle -7.76503e-015 -4.25399e-014
rhumerus -22.3512 8.88374 -88.5441
rradius 34.4476
rwrist 7.36707
rhand -18.2976 20.5919
rfingers 7.12502
rthumb 7.98314 -9.23733
lclavicle -7.76503e-015 -4.25399e-014
lhumerus -51.4053 4.63237 83.875
lradius 20.2971
lwrist 3.25084
lhand -19.032 23.638
lfingers 7.12502
lthumb 7.27426 53.4929
rfemur 15.3915 -3.82203 26.3235
rtibia 4.48456
rfoot -19.1814 6.1629
rtoes -8.3701
lfemur -32.4192 -4.03347 -10.5705
ltibia 16.8361
lfoot -16.2965 13.097
ltoes -9.35567
518
root 9.56237 17.3467 29.4611 2.48134 -6.91033 -5.25305
lowerback 2.88117 0.40286 5.80697
upperback -1.75149 0.849333 1.93498
thorax -3.37596 0.311252 -1.30388
lowerneck 2.46698 6.76588 17.626
upperneck 1.45825 9.92724 -20.6223
head 1.98223 5.05717 -9.11222
rclavicle 5.35787e-016 1.98785e-014
rhumerus -20.545 8.82423 -88.1999
rradius 34.3786
rwrist 7.1641
rhand -18.2551 20.2936
rfingers 7.12502
rthumb 8.02412 -9.53407
lclavicle 5.35787e-016 1.98785e-014
lhumerus -49.5429 4.36827 84.3742
lradius 20.1452
lwrist 3.17162
lhand -19.3855 23.7922
lfingers 7.12502
lthumb 6.93302 53.6587
rfemur 17.4314 -3.91777 26.2099
rtibia 1.04
rfoot -17.3933 6.51252
rtoes -10.3186
lfemur -32.8147 -4.13819 -10.5932
ltibia 17.1738
lfoot -15.5798 13.1499
ltoes -8.57879
519
root 9.58309 17.3238 29.6342 2.43174 -6.92814 -5.63966
lowerback 3.61274 0.415637 6.13235
upperback -2.26692 0.97601 2.135
thorax -4.32041 0.335439 -1.29399
lowerneck 2.65138 6.6015 16.9136
upperneck 1.7473 9.71548 -19.9041
head 1.91399 4.95351 -8.76622
rclavicle -5.35476e-015 -1.17283e-014
rhumerus -21.7308 8.79527 -88.1354
rradius 34.7648
rwrist 6.90275
rhand -18.3419 20.0065
rfingers 7.12502
rthumb 7.94033 -9.82437
lclavicle -5.35476e-015 -1.17283e-014
lhumerus -50.3889 4.48893 84.3574
lradius 20.2462
lwrist 2.64223
lhand -19.1286 23.9047
lfingers 7.12502
lthumb 7.18104 53.7629
rfemur 18.7095 -3.8416 26.4099
rtibia -3.18055e-014
rfoot -16.6675 6.72346
rtoes -11.5504
lfemur -32.6684 -3.97715 -10.3534
ltibia 17.618
lfoot -14.996 12.9592
ltoes -5.70725
520
root 9.58827 17.3079 29.809 2.2848 -7.10987 -5.45375
lowerback 0.464111 0.958803 6.93611
upperback 0.438867 1.293 1.22045
thorax 0.317879 0.664371 -2.62849
lowerneck 0.328501 6.95276 17.3655
upperneck 0.0736741 9.66524 -20.0245
head 1.86105 4.83115 -8.80588
rclavicle -5.21499e-015 1.56543e-014
rhumerus -17.47 6.94872 -88.1994
rradius 34.3066
rwrist 6.58044
rhand -18.8254 20.3151
rfingers 7.12502
rthumb 7.47365 -9.53288
lclavicle -5.21499e-015 1.56543e-014
lhumerus -45.4442 3.26559 83.995
lradius 19.702
lwrist 2.38711
lhand -18.4297 24.0214
lfingers 7.12502
lthumb 7.85566 53.8554
rfemur 19.4974 -3.63181 26.037
rtibia -6.36111e-015
rfoot -16.581 6.53822
rtoes -13.3985
lfemur -32.3003 -2.2204 -11.4022
ltibia 18.1737
lfoot -13.6691 11.6657
ltoes -8.37812
521
root 9.59515 17.2935 29.9817 2.27015 -7.18837 -4.99856
lowerback 4.56867 0.437187 5.16673
upperback -3.02962 1.04659 1.88525
thorax -5.66867 0.354479 -1.03154
lowerneck 4.10993 6.68158 17.3556
upperneck 1.64868 10.0405 -19.9973
head 1.72703 5.19322 -8.9171
rclavicle -1.79527e-014 -5.96354e-015
rhumerus -23.4489 9.13813 -88.7435
rradius 34.8402
rwrist 5.9748
rhand -19.0395 20.7748
rfingers 7.12502
rthumb 7.26702 -9.08038
lclavicle -1.79527e-014 -5.96354e-015
lhumerus -51.4802 4.08328 84.1384
lradius 20.2142
lwrist 2.28381
lhand -19.2096 23.8397
lfingers 7.12502
lthumb 7.10283 53.7005
rfemur 20.1362 -3.50168 25.365
rtibia 9.54166e-015
rfoot -16.3573 6.45121
rtoes -14.9242
lfemur -32.0828 -1.05245 -12.5463
ltibia 18.8392
lfoot -12.6115 10.7936
ltoes -13.2112
522
root 9.60521 17.2728 30.1568 2.23067 -7.2168 -5.13121
lowerback 3.17931 0.556402 5.4031
upperback -1.87178 1.05711 1.70696
thorax -3.65711 0.412793 -1.33018
lowerneck 3.11178 6.80503 17.5251
upperneck 0.721072 9.95898 -20.1372
head 1.6374 5.11208 -8.96274
rclavicle 6.64065e-015 -1.31198e-014
rhumerus -21.6957 8.55089 -88.634
rradius 34.7105
rwrist 5.99316
rhand -18.8647 20.9048
rfingers 7.12502
rthumb 7.43578 -8.94457
lclavicle 6.64065e-015 -1.31198e-014
lhumerus -49.4253 2.83719 85.0207
lradius 19.7599
lwrist 2.44475
lhand -20.9457 22.9391
lfingers 7.12502
lthumb 5.42676 52.8497
rfemur 20.8214 -3.42198 25.332
rtibia 1.27222e-014
rfoot -16.0327 6.65802
rtoes -15.7135
lfemur -31.8784 -0.621083 -12.6846
ltibia 19.6919
lfoot -12.2756 10.1169
ltoes -15.2179
523
root 9.61295 17.2571 30.3403 2.04641 -7.50758 -5.50023
lowerback 1.81873 0.770042 5.95178
upperback -0.549801 1.19174 1.54116
thorax -1.4996 0.54517 -1.78388
lowerneck 1.63413 6.96002 17.7122
upperneck 0.128169 9.88752 -20.2617
head 1.7272 5.00779 -8.98311
rclavicle 9.82198e-015 -4.42296e-015
rhumerus -19.9698 7.59459 -88.5371
rradius 34.7394
rwrist 6.33735
rhand -18.6135 20.6878
rfingers 7.12502
rthumb 7.67825 -9.15281
lclavicle 9.82198e-015 -4.42296e-015
lhumerus -47.0897 2.3986 84.9684
lradius 19.3663
lwrist 1.94078
lhand -21.4538 21.9604
lfingers 7.12502
lthumb 4.93614 51.8829
rfemur 21.6556 -3.10277 25.5648
rtibia 5.08889e-014
rfoot -15.3581 7.11023
rtoes -15.3013
lfemur -31.3349 -0.205681 -12.4765
ltibia 20.4931
lfoot -11.7762 9.77458
ltoes -17.3148
524
root 9.62174 17.2427 30.5377 1.6901 -7.97712 -5.77712
lowerback 2.81322 0.853843 5.8512
upperback -1.0799 1.40981 1.8327
thorax -2.60065 0.618989 -1.45804
lowerneck 1.13448 6.67638 17.0795
upperneck 1.16525 9.51476 -19.4914
head 1.95764 4.78518 -8.61127
rclavicle -4.19768e-015 8.54774e-015
rhumerus -21.4951 7.96298 -88.47
rradius 34.9859
rwrist 6.10453
rhand -18.5625 20.5896
rfingers 7.12502
rthumb 7.7274 -9.2492
lclavicle -4.19768e-015 8.54774e-015
lhumerus -48.0768 3.05809 84.7053
lradius 19.4725
lwrist 1.34261
lhand -21.2449 21.9521
lfingers 7.12502
lthumb 5.13789 51.8699
rfemur 22.7627 -2.61752 25.6739
rtibia -7.63333e-014
rfoot -14.4963 7.47978
rtoes -14.9559
lfemur -30.6603 1.06255 -12.682
ltibia 21.334
lfoot -10.4365 9.10914
ltoes -21.403
525
root 9.65373 17.2486 30.7325 1.81915 -8.01623 -4.72018
lowerback 0.617733 1.23304 5.56089
upperback 0.223179 1.67545 1.07102
thorax 0.0104325 0.840382 -2.02171
lowerneck 0.825703 6.89204 17.5042
upperneck -0.271141 9.61741 -20.1743
head 1.68477 4.83592 -8.9077
rclavicle 2.92489e-014 1.42566e-014
rhumerus -19.5844 7.28802 -88.3846
rradius 34.6044
rwrist 5.64413
rhand -18.8642 20.5997
rfingers 7.12502
rthumb 7.4362 -9.24957
lclavicle 2.92489e-014 1.42566e-014
lhumerus -45.4664 1.92514 84.9382
lradius 18.9135
lwrist 1.05889
lhand -21.7219 21.7164
lfingers 7.12502
lthumb 4.67735 51.6448
rfemur 23.2329 -2.45172 24.2343
rtibia -3.18055e-015
rfoot -14.0162 7.67057
rtoes -16.6723
lfemur -30.854 2.02003 -14.5215
ltibia 22.015
lfoot -8.16648 8.33356
ltoes -25.2015
526
root 9.67293 17.2581 30.9282 1.76152 -8.1598 -4.59058
lowerback 3.26975 0.986386 4.57163
upperback -2.08929 1.60312 1.62069
thorax -3.91678 0.695905 -0.992348
lowerneck 3.14266 6.62793 16.88
upperneck 0.78952 9.68718 -19.5603
head 1.53364 4.97302 -8.67673
rclavicle 5.81135e-015 2.08724e-015
rhumerus -23.9104 8.5971 -88.5264
rradius 34.9053
rwrist 5.59917
rhand -18.7397 20.4877
rfingers 7.12502
rthumb 7.5564 -9.35731
lclavicle 5.81135e-015 2.08724e-015
lhumerus -49.322 2.73152 85.1139
lradius 19.7311
lwrist 1.64853
lhand -20.7784 23.3233
lfingers 7.12502
lthumb 5.58829 53.2296
rfemur 23.9423 -2.22694 23.856
rtibia -2.54444e-014
rfoot -13.5221 7.81028
rtoes -19.0438
lfemur -30.906 2.01425 -14.7762
ltibia 22.8599
lfoot -6.17608 8.20134
ltoes -28.3642
